<svg xmlns="http://www.w3.org/2000/svg" width="500" height="500" viewBox="0 0 500 500" role="img" aria-labelledby="title desc">
  <title id="title">Blue house with green electrical plug</title>
  <desc id="desc">A clean website icon showing a blue house shape with a green electrical plug inside.</desc>
  <defs>
    <linearGradient id="houseBlue" x1="92" y1="86" x2="408" y2="416" gradientUnits="userSpaceOnUse">
      <stop offset="0" stop-color="#38bdf8"/>
      <stop offset="0.48" stop-color="#0b84d8"/>
      <stop offset="1" stop-color="#07549d"/>
    </linearGradient>
    <linearGradient id="houseInner" x1="150" y1="150" x2="350" y2="380" gradientUnits="userSpaceOnUse">
      <stop offset="0" stop-color="#e9f8ff"/>
      <stop offset="1" stop-color="#bfe7ff"/>
    </linearGradient>
    <linearGradient id="plugGreen" x1="190" y1="160" x2="326" y2="348" gradientUnits="userSpaceOnUse">
      <stop offset="0" stop-color="#6df47b"/>
      <stop offset="0.45" stop-color="#22c55e"/>
      <stop offset="1" stop-color="#12823a"/>
    </linearGradient>
    <linearGradient id="pinBlue" x1="212" y1="108" x2="278" y2="197" gradientUnits="userSpaceOnUse">
      <stop offset="0" stop-color="#e0f2fe"/>
      <stop offset="1" stop-color="#0ea5e9"/>
    </linearGradient>
    <filter id="softShadow" x="-30%" y="-30%" width="160%" height="160%">
      <feDropShadow dx="0" dy="18" stdDeviation="18" flood-color="#0f172a" flood-opacity=".18"/>
    </filter>
    <filter id="innerSoft" x="-20%" y="-20%" width="140%" height="140%">
      <feDropShadow dx="0" dy="5" stdDeviation="5" flood-color="#075985" flood-opacity=".18"/>
    </filter>
  </defs>

  <g filter="url(#softShadow)">
    <path d="M69 240c-15-13-17-35-4-50L224 69c15-12 37-12 52 0l159 121c14 15 12 37-4 50l-22 17v115c0 30-24 54-54 54H145c-30 0-54-24-54-54V257L69 240Z" fill="url(#houseBlue)"/>
    <path d="M116 236 250 134l134 102v134c0 17-14 31-31 31H147c-17 0-31-14-31-31V236Z" fill="url(#houseInner)" opacity=".96"/>
    <path d="M103 224 250 112l147 112" fill="none" stroke="#e0f2fe" stroke-width="14" stroke-linecap="round" stroke-linejoin="round" opacity=".9"/>
    <path d="M105 224 250 113l145 111" fill="none" stroke="#064e8b" stroke-width="6" stroke-linecap="round" stroke-linejoin="round" opacity=".28"/>
  </g>

  <g filter="url(#innerSoft)">
    <rect x="209" y="116" width="22" height="93" rx="11" fill="url(#pinBlue)"/>
    <rect x="269" y="116" width="22" height="93" rx="11" fill="url(#pinBlue)"/>
    <path d="M176 192c0-18 15-33 33-33h82c18 0 33 15 33 33v65c0 38-31 69-69 69h-10c-38 0-69-31-69-69v-65Z" fill="url(#plugGreen)"/>
    <path d="M205 176h90c7 0 13 6 13 13v63c0 28-23 51-51 51h-14c-28 0-51-23-51-51v-63c0-7 6-13 13-13Z" fill="#46e86d" opacity=".28"/>
    <path d="M250 312v45c0 22 18 40 40 40h18c12 0 22 10 22 22s-10 22-22 22h-18c-46 0-84-38-84-84v-45h44Z" fill="url(#plugGreen)"/>
    <path d="M185 200v54c0 33 27 60 60 60h10c33 0 60-27 60-60v-54" fill="none" stroke="#0b6b32" stroke-width="8" stroke-linecap="round" opacity=".45"/>
  </g>

  <ellipse cx="250" cy="439" rx="122" ry="18" fill="#0f172a" opacity=".08"/>
</svg>
